<?xml version="1.0" encoding="UTF-8" standalone="no"?>
<!-- Generator: Adobe Illustrator 16.0.0, SVG Export Plug-In . SVG Version: 6.00 Build 0)  -->

<svg
   version="1.1"
   id="圖層_1"
   x="0px"
   y="0px"
   width="451.086"
   height="102.27566"
   viewBox="0 0 451.08599 102.27565"
   enable-background="new 0 0 841.89 595.275"
   xml:space="preserve"
   sodipodi:docname="g19.svg"
   inkscape:version="1.3.2 (091e20e, 2023-11-25, custom)"
   xmlns:inkscape="http://www.inkscape.org/namespaces/inkscape"
   xmlns:sodipodi="http://sodipodi.sourceforge.net/DTD/sodipodi-0.dtd"
   xmlns="http://www.w3.org/2000/svg"
   xmlns:svg="http://www.w3.org/2000/svg"><defs
   id="defs18" /><sodipodi:namedview
   id="namedview18"
   pagecolor="#ffffff"
   bordercolor="#000000"
   borderopacity="0.25"
   inkscape:showpageshadow="2"
   inkscape:pageopacity="0.0"
   inkscape:pagecheckerboard="0"
   inkscape:deskcolor="#d1d1d1"
   inkscape:zoom="2.4407763"
   inkscape:cx="286.99886"
   inkscape:cy="51.008362"
   inkscape:window-width="1920"
   inkscape:window-height="991"
   inkscape:window-x="-9"
   inkscape:window-y="-9"
   inkscape:window-maximized="1"
   inkscape:current-layer="g18" />


<g
   id="g19"
   inkscape:export-filename="g19.svg"
   inkscape:export-xdpi="96"
   inkscape:export-ydpi="96"
   transform="translate(-180.706,-236.204)"><g
     id="g2">
	<path
   fill="#45b36e"
   d="m 235.804,236.204 c 2.04,0.309 4.095,0.535 6.116,0.939 9.008,1.802 16.988,5.717 23.867,11.813 9.148,8.106 14.71,18.226 16.696,30.252 1.652,10.009 0.336,19.701 -3.841,28.94 -5.19,11.48 -13.555,19.928 -24.923,25.379 -5.323,2.553 -10.946,4.081 -16.833,4.617 -2.607,0.237 -5.221,0.331 -7.838,0.332 -10.863,0.006 -21.726,0.003 -32.589,0.002 -1.79,0 -1.791,-0.001 -1.791,-1.828 0,-5.973 -0.001,-11.944 0.001,-17.917 0,-1.339 0.022,-1.361 1.352,-1.361 11.704,-0.002 23.409,-0.095 35.111,0.022 14.117,0.141 27.09,-9.906 29.758,-24.507 1.75,-9.58 -0.577,-18.212 -7.053,-25.575 -5.543,-6.303 -12.618,-9.541 -20.968,-10.194 -2.264,-0.177 -4.517,-0.113 -6.775,-0.166 -8.37,-0.194 -16.741,-0.17 -25.112,-0.223 -6.172,-0.039 -12.345,-0.104 -18.517,-0.173 -0.669,-0.007 -1.276,0.06 -1.759,0.571 0,-2.712 0,-5.424 0,-8.137 0.554,-0.25 1.144,-0.177 1.722,-0.177 15.615,-0.003 31.23,-0.002 46.845,-0.003 2.133,0 4.263,0.083 6.381,0.335 9.985,1.189 18.329,5.595 24.801,13.22 7.533,8.874 10.485,19.211 8.75,30.75 -1.442,9.59 -5.998,17.512 -13.455,23.709 -7.329,6.091 -15.855,8.884 -25.352,8.87 -8.535,-0.012 -17.07,-0.002 -25.604,-0.002 -0.323,0 -0.646,0.011 -0.97,0.005 -0.57,-0.01 -0.822,0.273 -0.816,0.832 0.007,0.742 -0.005,1.484 -0.003,2.228 0.003,1.388 0.011,1.397 1.411,1.397 9.02,0.002 18.04,-0.006 27.06,0.007 1.748,0.003 3.491,-0.063 5.224,-0.26 9.011,-1.022 17.023,-4.46 23.697,-10.557 11.784,-10.766 16.421,-24.217 13.705,-39.9 -2.12,-12.239 -8.797,-21.688 -19.253,-28.418 -7.068,-4.55 -14.878,-6.645 -23.253,-6.657 -16.326,-0.023 -32.652,-0.007 -48.979,-0.008 -1.295,0 -1.329,-0.032 -1.332,-1.281 -0.004,-2.292 0.002,-4.584 0.004,-6.876 18.171,0 36.343,0 54.515,0 z"
   id="path1" />
	<path
   fill="#145e94"
   d="m 180.706,304.59 c 0.551,-0.264 1.141,-0.184 1.719,-0.185 15.091,-0.003 30.183,-0.101 45.273,0.037 8.167,0.074 15.534,-5.912 17.096,-14.035 1.956,-10.161 -5.945,-20.189 -16.294,-20.259 -15.931,-0.107 -31.862,-0.037 -47.794,-0.042 0,-2.776 0,-5.553 0,-8.33 3.653,0.002 7.306,0.006 10.958,0.006 11.703,0.001 23.406,-0.008 35.109,0.005 3.677,0.004 7.299,0.412 10.706,1.91 8.936,3.93 14.343,10.684 15.61,20.369 1.835,14.029 -7.883,26.501 -21.919,28.449 -1.084,0.15 -2.18,0.237 -3.284,0.236 -12.447,-0.014 -24.894,-0.009 -37.34,-0.008 -1.501,0 -1.504,0.002 -1.504,1.49 -0.001,7.36 0,14.721 -0.001,22.081 0,1.446 -0.005,1.454 -1.451,1.448 -2.294,-0.01 -4.589,-0.03 -6.884,-0.047 0,-11.04 0,-22.083 0,-33.125 z"
   id="path2" />
</g><g
     id="g9"
     style="fill:#ffffff;fill-opacity:1">
	<path
   fill="#3a3a3c"
   d="m 395.134,309.982 c 0.683,-1.164 1.61,-2.073 2.783,-2.729 1.172,-0.654 2.456,-0.981 3.851,-0.981 1.596,0 3.016,0.393 4.26,1.176 1.244,0.784 2.146,1.895 2.707,3.333 h -2.955 c -0.389,-0.791 -0.928,-1.381 -1.618,-1.77 -0.69,-0.388 -1.488,-0.582 -2.394,-0.582 -0.993,0 -1.877,0.224 -2.653,0.669 -0.777,0.445 -1.384,1.086 -1.823,1.92 -0.439,0.834 -0.658,1.805 -0.658,2.912 0,1.107 0.219,2.078 0.658,2.912 0.438,0.834 1.046,1.478 1.823,1.931 0.776,0.453 1.661,0.679 2.653,0.679 0.906,0 1.704,-0.193 2.394,-0.582 0.69,-0.389 1.229,-0.978 1.618,-1.769 h 2.955 c -0.561,1.438 -1.463,2.545 -2.707,3.321 -1.244,0.777 -2.664,1.165 -4.26,1.165 -1.41,0 -2.697,-0.327 -3.861,-0.981 -1.165,-0.654 -2.089,-1.563 -2.772,-2.729 -0.683,-1.166 -1.024,-2.48 -1.024,-3.947 0,-1.467 0.34,-2.783 1.023,-3.948 z"
   id="path3"
   style="fill:#ffffff;fill-opacity:1" />
	<path
   fill="#3a3a3c"
   d="m 429.485,318.396 h -6.277 l -1.078,3.063 h -2.567 l 5.371,-15.014 h 2.848 l 5.371,15.014 h -2.589 z m -0.69,-2.006 -2.438,-6.968 -2.459,6.968 z"
   id="path4"
   style="fill:#ffffff;fill-opacity:1" />
	<path
   fill="#3a3a3c"
   d="m 454.271,313.089 c -0.36,0.677 -0.936,1.227 -1.726,1.65 -0.792,0.425 -1.806,0.637 -3.042,0.637 h -2.718 v 6.083 h -2.459 v -14.992 h 5.177 c 1.15,0 2.125,0.198 2.923,0.593 0.798,0.396 1.395,0.932 1.79,1.607 0.395,0.675 0.594,1.432 0.594,2.265 10e-4,0.762 -0.179,1.481 -0.539,2.157 z m -2.674,-0.356 c 0.46,-0.424 0.689,-1.024 0.689,-1.802 0,-1.639 -0.927,-2.459 -2.782,-2.459 h -2.718 v 4.896 h 2.718 c 0.934,0.001 1.632,-0.211 2.093,-0.635 z"
   id="path5"
   style="fill:#ffffff;fill-opacity:1" />
	<path
   fill="#3a3a3c"
   d="m 468.465,306.467 v 14.992 h -2.459 v -14.992 z"
   id="path6"
   style="fill:#ffffff;fill-opacity:1" />
	<path
   fill="#3a3a3c"
   d="m 490.229,306.467 v 2.006 h -3.991 v 12.986 h -2.459 v -12.986 h -4.013 v -2.006 z"
   id="path7"
   style="fill:#ffffff;fill-opacity:1" />
	<path
   fill="#3a3a3c"
   d="m 510.593,318.396 h -6.277 l -1.078,3.063 h -2.567 l 5.371,-15.014 h 2.848 l 5.371,15.014 h -2.589 z m -0.691,-2.006 -2.438,-6.968 -2.459,6.968 z"
   id="path8"
   style="fill:#ffffff;fill-opacity:1" />
	<path
   fill="#3a3a3c"
   d="m 527.893,319.475 h 5.069 v 1.984 h -7.528 v -14.992 h 2.459 z"
   id="path9"
   style="fill:#ffffff;fill-opacity:1" />
</g><g
     id="g18">
	<path
   fill="#3a3a3c"
   d="m 336.956,270.881 c -0.75,1.411 -1.951,2.558 -3.6,3.442 -1.65,0.885 -3.765,1.328 -6.345,1.328 h -5.67 v 12.69 h -5.13 v -31.275 h 10.8 c 2.4,0 4.433,0.413 6.098,1.237 1.665,0.826 2.91,1.943 3.735,3.353 0.825,1.411 1.238,2.985 1.238,4.725 -10e-4,1.591 -0.377,3.091 -1.126,4.5 z m -5.581,-0.742 c 0.96,-0.884 1.44,-2.137 1.44,-3.757 0,-3.42 -1.935,-5.13 -5.805,-5.13 h -5.67 v 10.215 h 5.67 c 1.95,-10e-4 3.405,-0.443 4.365,-1.328 z"
   id="path10"
   style="fill:#ffffff;fill-opacity:1" />
	<path
   fill="#3a3a3c"
   d="m 369.94,281.951 h -13.095 l -2.25,6.39 h -5.355 l 11.205,-31.32 h 5.94 l 11.205,31.32 h -5.4 z m -1.44,-4.185 -5.085,-14.535 -5.13,14.535 z"
   id="path11"
   style="fill:#ffffff;fill-opacity:1" />
	<path
   fill="#3a3a3c"
   d="m 395.679,284.201 h 10.575 v 4.14 h -15.705 v -31.275 h 5.13 z"
   id="path12"
   style="fill:#ffffff;fill-opacity:1" />
	<path
   fill="#3a3a3c"
   d="m 451.569,257.066 v 31.275 h -5.131 v -21.42 l -9.54,21.42 h -3.555 l -9.585,-21.42 v 21.42 h -5.13 v -31.275 h 5.535 l 10.979,24.525 10.936,-24.525 z"
   id="path13"
   style="fill:#ffffff;fill-opacity:1" />
	<path
   fill="#3a3a3c"
   d="m 497.626,258.979 c 2.504,1.275 4.439,3.105 5.805,5.49 1.365,2.385 2.048,5.168 2.048,8.348 0,3.18 -0.683,5.94 -2.048,8.28 -1.365,2.34 -3.301,4.133 -5.805,5.377 -2.506,1.246 -5.423,1.868 -8.753,1.868 h -10.215 v -31.275 h 10.215 c 3.33,-0.001 6.247,0.637 8.753,1.912 z m -0.338,22.208 c 1.95,-1.98 2.925,-4.77 2.925,-8.37 0,-3.629 -0.975,-6.465 -2.925,-8.505 -1.95,-2.04 -4.755,-3.06 -8.415,-3.06 h -5.085 v 22.905 h 5.085 c 3.66,-10e-4 6.465,-0.99 8.415,-2.97 z"
   id="path14"
   style="fill:#ffffff;fill-opacity:1" />
	<path
   fill="#3a3a3c"
   d="m 534.908,288.341 -7.2,-12.51 h -3.915 v 12.51 h -5.13 v -31.275 h 10.8 c 2.4,0 4.433,0.42 6.098,1.26 1.665,0.84 2.909,1.965 3.735,3.375 0.824,1.411 1.237,2.986 1.237,4.725 0,2.041 -0.593,3.893 -1.777,5.558 -1.186,1.665 -3.008,2.798 -5.468,3.397 l 7.74,12.96 z m -11.115,-16.605 h 5.67 c 1.92,0 3.367,-0.479 4.343,-1.44 0.975,-0.96 1.463,-2.25 1.463,-3.87 0,-1.62 -0.48,-2.887 -1.44,-3.802 -0.961,-0.915 -2.415,-1.373 -4.365,-1.373 h -5.67 v 10.485 z"
   id="path15"
   style="fill:#ffffff;fill-opacity:1" />
	<path
   fill="#3a3a3c"
   d="m 560.332,257.066 v 31.275 h -5.13 v -31.275 z"
   id="path16"
   style="fill:#ffffff;fill-opacity:1" />
	<path
   fill="#3a3a3c"
   d="m 602.137,257.066 -11.745,31.275 h -5.94 l -11.789,-31.275 h 5.489 l 9.271,26.01 9.314,-26.01 z"
   id="path17"
   style="fill:#ffffff;fill-opacity:1" />
	<path
   fill="#3a3a3c"
   d="m 619.642,261.207 v 9.18 h 10.8 v 4.185 h -10.8 v 9.585 h 12.15 v 4.185 h -17.28 v -31.32 h 17.28 v 4.185 z"
   id="path18"
   style="fill:#ffffff;fill-opacity:1" />
</g></g>
</svg>
